<?xml version="1.0" encoding="utf-8"?><svg xmlns="http://www.w3.org/2000/svg" xmlns:xlink="http://www.w3.org/1999/xlink" width="1515" height="605" preserveAspectRatio="xMidYMid" viewBox="0 0 1515 605" style="z-index:1;margin-right:-1.33333px;display:block;background-color:rgb(241, 242, 243);animation-play-state:paused" ><g transform="translate(757.5,302.5) scale(1,1) translate(-757.5,-302.5)" style="transform:matrix(1, 0, 0, 1, 0, 0);animation-play-state:paused" ><linearGradient id="lg-0.9422753108538635" x1="0" x2="1" y1="0" y2="0" style="animation-play-state:paused" ><stop stop-color="#14e0ea" offset="0" style="animation-play-state:paused" ></stop>

  
<stop stop-color="#3bb2eb" offset="1" style="animation-play-state:paused" ></stop></linearGradient>
<path d="M 0 0 L 0 564.328 Q 151.5 500.607 303 474.363 T 606 371.643 T 909 423.299 T 1212 288.518 T 1515 216.584 L 1515 0 Z" fill="url(#lg-0.9422753108538635)" opacity="0.4" style="opacity:0.4;animation-play-state:paused" ></path>
<path d="M 0 0 L 0 548.366 Q 151.5 515.324 303 483.197 T 606 447.796 T 909 371.308 T 1212 312.019 T 1515 290.153 L 1515 0 Z" fill="url(#lg-0.9422753108538635)" opacity="0.4" style="opacity:0.4;animation-play-state:paused" ></path>
<path d="M 0 0 L 0 524.411 Q 151.5 469.947 303 454.52 T 606 463.034 T 909 394.028 T 1212 305.827 T 1515 246.539 L 1515 0 Z" fill="url(#lg-0.9422753108538635)" opacity="0.4" style="opacity:0.4;animation-play-state:paused" ></path>
<path d="M 0 0 L 0 511.912 Q 151.5 483.044 303 463.78 T 606 475.601 T 909 360.842 T 1212 304.274 T 1515 268.954 L 1515 0 Z" fill="url(#lg-0.9422753108538635)" opacity="0.4" style="opacity:0.4;animation-play-state:paused" ></path>
<path d="M 0 0 L 0 537.596 Q 151.5 556.376 303 534.287 T 606 409.727 T 909 383.193 T 1212 295.768 T 1515 293.598 L 1515 0 Z" fill="url(#lg-0.9422753108538635)" opacity="0.4" style="opacity:0.4;animation-play-state:paused" ></path></g></svg>