<svg width="220" height="80" viewBox="0 0 220 80" fill="none" xmlns="http://www.w3.org/2000/svg">
<g filter="url(#filter0_d_12_266)">
<path d="M171.322 5.05836C171.178 5.70636 171.106 6.21036 171.01 6.73836C170.698 9.42636 169.618 16.8184 169.618 19.4104C169.618 21.7384 170.938 23.1544 173.674 23.1544C177.322 23.1544 179.65 21.5704 179.65 19.0744C179.65 17.4664 178.786 15.6904 177.01 14.2024L179.122 13.7464C180.778 15.5704 181.594 17.2504 181.594 19.2904C181.594 22.8664 178.402 25.0504 173.65 25.0504C170.41 25.0504 167.77 23.6104 167.77 19.6984C167.77 17.1304 168.898 9.95436 169.162 6.64236C169.234 5.80236 169.234 5.37036 169.186 4.93836L171.322 5.05836ZM163.642 8.25036C165.658 8.89836 168.538 9.21036 170.674 9.21036C172.498 9.21036 174.154 9.11436 175.57 8.89836L175.522 10.7224C173.986 10.8664 172.57 10.9384 170.626 10.9384C168.514 10.9384 165.634 10.5784 163.522 10.0024L163.642 8.25036ZM163.042 14.2264C165.37 15.0424 168.178 15.2584 170.386 15.2584C172.042 15.2584 173.698 15.2104 175.378 14.9704L175.354 16.7944C173.746 16.9624 172.258 17.0104 170.65 17.0104C168.034 17.0104 165.13 16.7224 162.946 16.0504L163.042 14.2264ZM192.202 5.01036C194.794 5.58636 199.378 6.13836 201.682 6.25836L201.418 8.03436C199.018 7.81836 194.818 7.29036 191.89 6.76236L192.202 5.01036ZM202.162 11.8744C201.706 12.1864 201.106 12.6904 200.818 12.9304C199.906 13.7704 197.218 16.2904 196.306 17.2264C196.57 17.2024 197.002 17.2024 197.266 17.2744C198.178 17.3704 198.73 17.9944 199.066 18.9784C199.306 19.6744 199.642 20.8984 199.882 21.6664C200.17 22.5784 200.722 22.9864 201.97 22.9864C203.53 22.9864 205.354 22.7704 206.506 22.4824L206.362 24.4984C205.354 24.6904 203.146 24.8584 201.874 24.8584C199.93 24.8584 198.754 24.4024 198.226 22.8184C197.986 22.0984 197.65 20.6824 197.41 20.0104C197.146 19.1704 196.618 18.7144 195.946 18.7144C195.298 18.7144 194.722 19.0504 194.17 19.6024C193.282 20.4424 190.666 23.2024 189.298 24.9304L187.474 23.6584C187.786 23.4184 188.218 23.0344 188.674 22.5784C189.658 21.6184 196.186 15.0664 198.538 12.7144C196.642 12.8104 192.61 13.1704 191.146 13.2904C190.354 13.3384 189.73 13.4344 189.226 13.5064L189.058 11.4184C189.61 11.4664 190.306 11.4664 191.074 11.4664C192.466 11.4184 198.034 11.0584 199.858 10.8184C200.266 10.7704 200.77 10.6504 201.01 10.5544L202.162 11.8744Z" fill="white"/>
</g>
<g filter="url(#filter1_d_12_266)">
<path d="M70.2743 54.179C70.2743 54.8723 69.8343 55.459 68.9543 55.939C69.2743 56.0723 69.581 56.139 69.8743 56.139C70.701 56.139 71.5543 55.4857 72.4343 54.179C73.3143 52.8723 74.0476 51.339 74.6343 49.579C75.2476 47.819 75.741 46.1123 76.1143 44.459C76.5143 42.779 76.7143 41.5123 76.7143 40.659C76.7143 39.4057 76.0476 38.779 74.7143 38.779C73.3276 38.779 71.8876 39.339 70.3943 40.459C68.901 41.5523 68.1543 42.779 68.1543 44.139C68.1543 44.779 68.3143 45.099 68.6343 45.099C68.661 45.099 68.701 44.9523 68.7543 44.659C68.8076 44.339 68.9543 44.0323 69.1943 43.739C69.4343 43.4457 69.7943 43.299 70.2743 43.299C70.7276 43.299 71.1143 43.459 71.4343 43.779C71.7543 44.0723 71.9143 44.4457 71.9143 44.899C71.9143 45.539 71.621 46.0323 71.0343 46.379C70.4476 46.7257 69.781 46.899 69.0343 46.899C68.2343 46.899 67.5543 46.659 66.9943 46.179C66.461 45.699 66.1943 44.9523 66.1943 43.939C66.1943 42.099 67.1276 40.459 68.9943 39.019C70.861 37.579 72.8476 36.859 74.9543 36.859C77.461 36.859 78.7143 38.1523 78.7143 40.739C78.7143 40.819 78.6876 41.099 78.6343 41.579C79.5676 40.619 80.7143 39.779 82.0743 39.059C83.461 38.3123 84.6743 37.939 85.7143 37.939C88.1143 37.939 89.3143 39.259 89.3143 41.899C89.3143 43.2057 88.8743 45.219 87.9943 47.939C87.141 50.6323 86.7143 52.4057 86.7143 53.259C86.7143 54.0857 87.0076 54.7257 87.5943 55.179C88.181 55.6057 88.901 55.819 89.7543 55.819C90.7143 55.819 91.5676 55.5257 92.3143 54.939C93.0876 54.3257 93.4743 53.5123 93.4743 52.499C93.4743 51.939 93.301 51.5123 92.9543 51.219C92.6343 50.899 92.2476 50.739 91.7943 50.739C91.4743 50.739 91.1943 50.819 90.9543 50.979C90.741 51.1123 90.6343 51.2857 90.6343 51.499C91.0876 51.8723 91.3143 52.3523 91.3143 52.939C91.3143 53.3923 91.1543 53.7523 90.8343 54.019C90.541 54.259 90.1943 54.379 89.7943 54.379C89.3676 54.379 88.9943 54.2457 88.6743 53.979C88.381 53.7123 88.2343 53.339 88.2343 52.859C88.2343 51.8723 88.501 51.0323 89.0343 50.339C89.5676 49.619 90.4343 49.259 91.6343 49.259C92.5943 49.259 93.4343 49.5923 94.1543 50.259C94.901 50.899 95.2743 51.7123 95.2743 52.699C95.2743 54.2457 94.7143 55.459 93.5943 56.339C92.4743 57.219 91.1676 57.659 89.6743 57.659C88.2876 57.659 87.101 57.2723 86.1143 56.499C85.1276 55.7257 84.6343 54.6457 84.6343 53.259C84.6343 52.139 85.0876 50.259 85.9943 47.619C86.901 44.979 87.3543 43.0457 87.3543 41.819C87.3543 40.5923 86.8076 39.979 85.7143 39.979C84.5943 39.979 83.2743 40.4723 81.7543 41.459C80.261 42.4457 79.0343 43.499 78.0743 44.619C77.7543 46.0857 77.3676 47.5257 76.9143 48.939C76.461 50.3257 75.901 51.739 75.2343 53.179C74.5943 54.5923 73.821 55.739 72.9143 56.619C72.0076 57.499 71.0476 57.939 70.0343 57.939C69.1543 57.939 68.3543 57.6857 67.6343 57.179C66.941 56.6457 66.5943 55.899 66.5943 54.939C66.5943 54.2457 66.7943 53.7123 67.1943 53.339C67.621 52.9657 68.101 52.779 68.6343 52.779C69.1143 52.779 69.501 52.899 69.7943 53.139C70.1143 53.379 70.2743 53.7257 70.2743 54.179ZM104.686 27.259C105.673 27.259 106.486 27.579 107.126 28.219C107.766 28.859 108.086 29.6723 108.086 30.659C108.086 31.779 107.713 32.6723 106.966 33.339C106.22 34.0057 105.34 34.339 104.326 34.339C103.313 34.339 102.486 34.0323 101.846 33.419C101.206 32.8057 100.886 32.0057 100.886 31.019C100.886 30.0323 101.233 29.1657 101.926 28.419C102.646 27.6457 103.566 27.259 104.686 27.259ZM104.526 29.299C104.02 29.299 103.58 29.4457 103.206 29.739C102.86 30.0057 102.686 30.4057 102.686 30.939C102.686 31.899 103.233 32.379 104.326 32.379C104.833 32.379 105.273 32.2457 105.646 31.979C106.02 31.7123 106.206 31.3123 106.206 30.779C106.206 29.7923 105.646 29.299 104.526 29.299ZM106.246 54.899C105.553 54.579 105.206 54.059 105.206 53.339C105.206 52.8323 105.38 52.3923 105.726 52.019C106.073 51.6457 106.513 51.459 107.046 51.459C107.553 51.459 107.993 51.659 108.366 52.059C108.74 52.459 108.926 52.9257 108.926 53.459C108.926 54.6857 108.246 55.7123 106.886 56.539C105.526 57.3657 104.153 57.779 102.766 57.779C101.7 57.779 100.806 57.499 100.086 56.939C99.3928 56.379 99.0462 55.5523 99.0462 54.459C99.0462 53.259 99.4462 51.6857 100.246 49.739C101.046 47.7657 101.846 45.899 102.646 44.139C103.446 42.3523 103.846 41.099 103.846 40.379C103.846 39.6857 103.5 39.339 102.806 39.339C102.22 39.339 101.486 39.5523 100.606 39.979C99.7528 40.4057 99.1928 40.8323 98.9262 41.259C99.2462 41.3657 99.5128 41.5523 99.7262 41.819C99.9662 42.0857 100.086 42.3923 100.086 42.739C100.086 43.1657 99.9395 43.539 99.6462 43.859C99.3528 44.179 99.0062 44.339 98.6062 44.339C97.6195 44.339 97.1262 43.539 97.1262 41.939C97.1262 40.6857 97.7128 39.659 98.8862 38.859C100.086 38.059 101.366 37.659 102.726 37.659C103.633 37.659 104.38 37.899 104.966 38.379C105.553 38.859 105.846 39.5657 105.846 40.499C105.846 41.1123 105.446 42.299 104.646 44.059C103.873 45.819 103.1 47.6723 102.326 49.619C101.553 51.539 101.166 53.0457 101.166 54.139C101.166 55.3657 101.74 55.979 102.886 55.979C104.326 55.979 105.446 55.619 106.246 54.899ZM116.178 49.979C115.218 49.979 114.472 50.2857 113.938 50.899C113.405 51.4857 113.138 52.2057 113.138 53.059C113.138 53.9123 113.445 54.659 114.058 55.299C114.672 55.939 115.538 56.259 116.658 56.259C118.205 56.259 119.592 55.4457 120.818 53.819C122.072 52.1657 122.978 50.3657 123.538 48.419C124.098 46.4723 124.378 44.7123 124.378 43.139C124.378 40.7123 123.405 39.499 121.458 39.499C120.658 39.499 119.872 39.7523 119.098 40.259C118.352 40.739 117.752 41.4057 117.298 42.259C118.098 42.4723 118.498 43.0323 118.498 43.939C118.498 44.3923 118.338 44.7923 118.018 45.139C117.725 45.4857 117.365 45.659 116.938 45.659C116.485 45.659 116.098 45.4857 115.778 45.139C115.458 44.7657 115.298 44.339 115.298 43.859C115.298 42.179 115.938 40.739 117.218 39.539C118.525 38.3123 120.018 37.699 121.698 37.699C124.045 37.699 125.512 38.7523 126.098 40.859C126.925 39.9523 128.085 39.1923 129.578 38.579C131.072 37.9657 132.472 37.659 133.778 37.659C135.938 37.659 137.178 38.539 137.498 40.299C139.685 38.539 141.712 37.659 143.578 37.659C144.672 37.659 145.565 37.9257 146.258 38.459C146.952 38.9923 147.298 39.8057 147.298 40.899C147.298 42.179 146.925 43.619 146.178 45.219C145.432 46.819 144.685 48.419 143.938 50.019C143.192 51.5923 142.818 53.0057 142.818 54.259C142.818 55.5123 143.405 56.139 144.578 56.139C145.245 56.139 145.938 55.939 146.658 55.539C147.405 55.1123 147.965 54.619 148.338 54.059C147.458 53.6057 147.018 53.0057 147.018 52.259C147.018 51.8057 147.178 51.4323 147.498 51.139C147.845 50.819 148.325 50.659 148.938 50.659C149.445 50.659 149.898 50.8323 150.298 51.179C150.698 51.5257 150.898 51.939 150.898 52.419C150.898 53.859 150.178 55.1257 148.738 56.219C147.298 57.3123 145.792 57.859 144.218 57.859C143.178 57.859 142.325 57.579 141.658 57.019C140.992 56.4323 140.658 55.579 140.658 54.459C140.658 53.179 141.018 51.699 141.738 50.019C142.485 48.339 143.218 46.7123 143.938 45.139C144.685 43.5657 145.058 42.259 145.058 41.219C145.058 40.1257 144.472 39.579 143.298 39.579C141.672 39.579 139.738 40.6723 137.498 42.859C137.445 44.2723 137.245 45.8057 136.898 47.459C136.552 49.1123 136.085 50.739 135.498 52.339C134.938 53.9123 134.192 55.2323 133.258 56.299C132.352 57.339 131.365 57.859 130.298 57.859C129.205 57.859 128.658 57.1657 128.658 55.779C128.658 54.339 129.338 52.2457 130.698 49.499C132.085 46.7523 133.712 44.3123 135.578 42.179C135.578 40.3923 134.712 39.499 132.978 39.499C131.832 39.499 130.618 39.859 129.338 40.579C128.058 41.2723 127.058 42.0323 126.338 42.859C126.338 44.3523 126.138 45.9257 125.738 47.579C125.338 49.2057 124.752 50.8057 123.978 52.379C123.232 53.9257 122.205 55.2057 120.898 56.219C119.618 57.2323 118.178 57.739 116.578 57.739C114.898 57.739 113.578 57.2857 112.618 56.379C111.658 55.4723 111.178 54.3923 111.178 53.139C111.178 51.8857 111.605 50.8057 112.458 49.899C113.338 48.9923 114.538 48.539 116.058 48.539C117.205 48.539 118.152 48.8057 118.898 49.339C119.645 49.8723 120.018 50.6057 120.018 51.539C120.018 52.259 119.792 52.8323 119.338 53.259C118.885 53.6857 118.378 53.899 117.818 53.899C117.392 53.899 117.005 53.779 116.658 53.539C116.312 53.2723 116.138 52.9257 116.138 52.499C116.138 52.019 116.298 51.5923 116.618 51.219C116.938 50.819 117.298 50.539 117.698 50.379C117.192 50.1123 116.685 49.979 116.178 49.979ZM130.618 55.499C130.618 55.7657 130.698 55.899 130.858 55.899C131.498 55.899 132.272 54.819 133.178 52.659C134.085 50.499 134.738 48.1923 135.138 45.739C133.832 47.4457 132.752 49.259 131.898 51.179C131.045 53.0723 130.618 54.5123 130.618 55.499ZM165.612 51.619C165.559 52.0457 165.346 52.419 164.972 52.739C164.626 53.059 164.226 53.219 163.772 53.219C163.372 53.219 163.026 53.099 162.732 52.859C162.466 52.5923 162.332 52.2323 162.332 51.779C162.332 51.299 162.572 50.8857 163.052 50.539C163.532 50.1923 164.146 50.019 164.892 50.019C165.692 50.019 166.319 50.2857 166.772 50.819C167.226 51.3523 167.452 52.019 167.452 52.819C167.452 54.259 166.906 55.459 165.812 56.419C164.746 57.3523 163.279 57.819 161.412 57.819C159.172 57.819 157.306 57.1123 155.812 55.699C154.319 54.2857 153.572 52.2457 153.572 49.579C153.572 47.6857 153.972 45.8457 154.772 44.059C155.599 42.2457 156.799 40.739 158.372 39.539C159.972 38.3123 161.746 37.699 163.692 37.699C165.586 37.699 167.052 38.1523 168.092 39.059C169.159 39.939 169.692 41.019 169.692 42.299C169.692 44.1923 168.839 45.6857 167.132 46.779C165.426 47.8723 163.452 48.419 161.212 48.419C159.159 48.419 157.479 47.979 156.172 47.099C155.906 47.899 155.772 48.819 155.772 49.859C155.772 51.779 156.292 53.2857 157.332 54.379C158.372 55.4723 159.839 56.019 161.732 56.019C162.719 56.019 163.652 55.7523 164.532 55.219C165.439 54.659 165.892 53.9123 165.892 52.979C165.892 52.4457 165.799 51.9923 165.612 51.619ZM156.732 45.619C157.719 46.3123 159.092 46.659 160.852 46.659C162.666 46.659 164.252 46.2723 165.612 45.499C166.999 44.699 167.692 43.5657 167.692 42.099C167.692 40.3657 166.546 39.499 164.252 39.499C162.466 39.499 160.879 40.099 159.492 41.299C158.106 42.499 157.186 43.939 156.732 45.619Z" fill="white"/>
</g>
<path d="M58.725 44.3977C58.725 50.9737 55.6361 56.335 50.531 60.0983C45.3955 63.884 38.1979 66.0555 30.1125 66.0555C22.2639 66.0555 15.0607 63.8873 9.8603 60.0938C4.68715 56.3202 1.5 50.9555 1.5 44.3977C1.5 38.7099 4.60214 32.6572 9.82022 27.986C15.0194 23.3317 22.1985 20.1667 30.1125 20.1667C37.9568 20.1667 45.1325 23.8417 50.3738 28.8055C55.6603 33.8121 58.725 39.878 58.725 44.3977Z" fill="#4D80E4" stroke="#2E279D" stroke-width="3"/>
<ellipse cx="30.9049" cy="59.4074" rx="16.6411" ry="1.94003" fill="#ACE5FF" fill-opacity="0.55"/>
<path fill-rule="evenodd" clip-rule="evenodd" d="M38.895 28.3408C41.8632 29.7057 46.1097 32.6216 49.0323 36.7838C51.9516 40.9412 53.5476 46.3302 51.2293 52.702C50.9655 53.2902 50.6698 53.8894 50.3401 54.4996C50.3223 54.5324 50.3345 54.5735 50.3673 54.5914V54.5914C50.3989 54.6085 50.4116 54.6474 50.3961 54.6798C50.3851 54.7027 50.3741 54.7255 50.3631 54.7484C50.3276 54.8221 50.3579 54.9107 50.4313 54.9467L50.7474 55.1015C50.9953 55.223 51.2954 55.1207 51.4118 54.8703C51.6935 54.2647 51.9415 53.6665 52.1575 53.0759C53.6389 49.7584 54.1602 46.7319 53.9845 44.0042C53.7749 40.7485 52.5747 37.9538 50.8879 35.63C47.6671 31.1929 42.6559 28.4472 39.2495 27.4035C39.0684 27.3209 38.8916 27.2438 38.7198 27.1723C38.4649 27.0661 38.1761 27.1968 38.0784 27.4551L38.0368 27.5652C37.9621 27.7627 38.0619 27.983 38.2572 28.0631C38.3502 28.1012 38.4448 28.141 38.5409 28.1827C38.5534 28.1881 38.5599 28.2018 38.5563 28.2148V28.2148C38.5524 28.2293 38.5609 28.2443 38.5754 28.2483C38.68 28.2773 38.7866 28.3081 38.895 28.3408ZM52.7741 42.3602C52.3425 40.0376 51.3654 37.9901 50.0786 36.2175C49.278 35.1145 48.3587 34.1198 47.3795 33.2342C48.2599 34.1427 49.0971 35.1358 49.8507 36.2091C51.1323 38.0342 52.1728 40.0932 52.7741 42.3602Z" fill="white"/>
<path d="M49.0323 36.7838L48.2139 37.3584L48.2139 37.3584L49.0323 36.7838ZM38.895 28.3408L39.3128 27.4323L39.25 27.4034L39.1838 27.3834L38.895 28.3408ZM51.2293 52.702L52.1417 53.1111L52.1566 53.078L52.169 53.0439L51.2293 52.702ZM52.1575 53.0759L51.2444 52.6682L51.2302 52.6998L51.2183 52.7324L52.1575 53.0759ZM53.9845 44.0042L54.9824 43.9399L54.9824 43.9399L53.9845 44.0042ZM50.8879 35.63L51.6972 35.0426L51.6972 35.0426L50.8879 35.63ZM39.2495 27.4035L38.835 28.3135L38.8943 28.3405L38.9566 28.3596L39.2495 27.4035ZM52.7741 42.3602L51.8075 42.6165L53.7573 42.1775L52.7741 42.3602ZM50.0786 36.2175L49.2694 36.8049L49.2694 36.8049L50.0786 36.2175ZM47.3795 33.2342L48.0503 32.4925L46.6614 33.9301L47.3795 33.2342ZM49.8507 36.2091L50.6691 35.6344L50.6691 35.6344L49.8507 36.2091ZM38.5409 28.1827L38.1435 29.1003L38.5409 28.1827ZM50.7474 55.1015L51.1874 54.2035L50.7474 55.1015ZM51.4118 54.8703L52.3186 55.2921L51.4118 54.8703ZM50.4313 54.9467L50.8713 54.0487L50.4313 54.9467ZM50.3961 54.6798L51.2981 55.1114L50.3961 54.6798ZM38.5754 28.2483L38.3086 29.2121L38.5754 28.2483ZM50.3401 54.4996L51.2199 54.9749L50.3401 54.4996ZM49.8507 36.2091C46.8065 31.8738 42.407 28.8551 39.3128 27.4323L38.4772 29.2494C41.3194 30.5563 45.4129 33.3694 48.2139 37.3584L49.8507 36.2091ZM52.169 53.0439C54.621 46.3049 52.9176 40.5767 49.8507 36.2091L48.2139 37.3584C50.9856 41.3056 52.4743 46.3555 50.2895 52.3601L52.169 53.0439ZM51.2199 54.9749C51.5608 54.3439 51.8675 53.7227 52.1417 53.1111L50.3168 52.2929C50.0635 52.8577 49.7787 53.4348 49.4603 54.0242L51.2199 54.9749ZM51.2638 55.1829C51.2753 55.159 51.2867 55.1352 51.2981 55.1114L49.494 54.2482C49.4835 54.2701 49.473 54.292 49.4624 54.314L51.2638 55.1829ZM51.1874 54.2035L50.8713 54.0487L49.9913 55.8447L50.3074 55.9995L51.1874 54.2035ZM51.2183 52.7324C51.0123 53.2958 50.7752 53.8679 50.5051 54.4486L52.3186 55.2921C52.6118 54.6616 52.8706 54.0372 53.0966 53.4194L51.2183 52.7324ZM52.9866 44.0685C53.1506 46.6158 52.6677 49.4809 51.2444 52.6682L53.0706 53.4837C54.6102 50.0359 55.1697 46.848 54.9824 43.9399L52.9866 44.0685ZM50.0786 36.2175C51.6722 38.4128 52.7909 41.0297 52.9866 44.0685L54.9824 43.9399C54.7588 40.4673 53.4772 37.4948 51.6972 35.0426L50.0786 36.2175ZM38.9566 28.3596C42.2085 29.356 47.0145 31.9962 50.0786 36.2175L51.6972 35.0426C48.3197 30.3896 43.1033 27.5384 39.5425 26.4473L38.9566 28.3596ZM38.3352 28.0953C38.4965 28.1625 38.6633 28.2353 38.835 28.3135L39.6641 26.4934C39.4734 26.4066 39.2867 26.3251 39.1044 26.2492L38.3352 28.0953ZM38.9722 27.9189L39.0138 27.8088L37.1431 27.1015L37.1014 27.2116L38.9722 27.9189ZM38.9384 27.2651C38.8364 27.2209 38.7357 27.1785 38.6366 27.1378L37.8779 28.9883C37.9646 29.0239 38.0532 29.0612 38.1435 29.1003L38.9384 27.2651ZM39.1838 27.3834C39.0683 27.3486 38.9544 27.3156 38.8421 27.2846L38.3086 29.2121C38.4056 29.2389 38.5049 29.2677 38.6062 29.2982L39.1838 27.3834ZM53.7573 42.1775C53.2947 39.6884 52.2489 37.505 50.8879 35.63L49.2694 36.8049C50.4818 38.4753 51.3903 40.3869 51.7909 42.5429L53.7573 42.1775ZM50.8879 35.63C50.0417 34.4643 49.0743 33.4187 48.0503 32.4925L46.7088 33.9758C47.6431 34.8209 48.5143 35.7647 49.2694 36.8049L50.8879 35.63ZM46.6614 33.9301C47.5091 34.8049 48.3119 35.7578 49.0323 36.7838L50.6691 35.6344C49.8822 34.5138 49.0107 33.4805 48.0977 32.5383L46.6614 33.9301ZM49.0323 36.7838C50.2575 38.5286 51.2412 40.4813 51.8075 42.6165L53.7407 42.1038C53.1045 39.7051 52.0071 37.5399 50.6691 35.6344L49.0323 36.7838ZM38.1435 29.1003C37.698 28.9074 37.4639 28.4164 37.5921 27.95L39.5206 28.4797C39.6559 27.9872 39.4087 27.4688 38.9384 27.2651L38.1435 29.1003ZM37.1014 27.2116C36.8292 27.9317 37.1975 28.7094 37.8779 28.9883L38.6366 27.1378C38.9262 27.2566 39.0951 27.5938 38.9722 27.9189L37.1014 27.2116ZM39.1044 26.2492C38.308 25.9173 37.433 26.3346 37.1431 27.1015L39.0138 27.8088C38.9192 28.0591 38.6219 28.2148 38.3352 28.0953L39.1044 26.2492ZM50.3074 55.9995C51.0464 56.3617 51.9602 56.0625 52.3186 55.2921L50.5051 54.4486C50.6305 54.179 50.9443 54.0844 51.1874 54.2035L50.3074 55.9995ZM49.4624 54.314C49.1897 54.8792 49.4205 55.565 49.9913 55.8447L50.8713 54.0487C51.2953 54.2564 51.4654 54.7649 51.2638 55.1829L49.4624 54.314ZM49.8899 55.4701C49.4553 55.2339 49.279 54.6976 49.494 54.2482L51.2981 55.1114C51.5441 54.5972 51.3425 53.9831 50.8447 53.7126L49.8899 55.4701ZM37.5921 27.95C37.4417 28.4974 37.7637 29.0613 38.3086 29.2121L38.8421 27.2846C39.358 27.4274 39.663 27.9613 39.5206 28.4797L37.5921 27.95ZM49.4603 54.0242C49.1811 54.5409 49.3713 55.1883 49.8899 55.4701L50.8447 53.7126C51.2977 53.9587 51.4635 54.524 51.2199 54.9749L49.4603 54.0242Z" fill="white"/>
<path d="M18.3805 58.0458L22.3711 51.1595M43.1157 57.6957L38.097 51.1595M38.097 51.1595L29.1349 39.4877L22.3711 51.1595M38.097 51.1595H22.3711M15.5126 33.0229L22.371 37.3868L15.5125 40.8884M45.6251 29.3333L37.4125 36.5785L45.6251 40.8884" stroke="#2E279D" stroke-width="3"/>
<line x1="0.5" y1="-0.5" x2="154.628" y2="-0.5" transform="matrix(0.999984 -0.00573005 0.00603848 0.999982 64.7873 66.6667)" stroke="black" stroke-opacity="0.23" stroke-linecap="round"/>
<defs>
<filter id="filter0_d_12_266" x="158.946" y="0.938354" width="51.56" height="28.112" filterUnits="userSpaceOnUse" color-interpolation-filters="sRGB">
<feFlood flood-opacity="0" result="BackgroundImageFix"/>
<feColorMatrix in="SourceAlpha" type="matrix" values="0 0 0 0 0 0 0 0 0 0 0 0 0 0 0 0 0 0 127 0" result="hardAlpha"/>
<feOffset/>
<feGaussianBlur stdDeviation="2"/>
<feComposite in2="hardAlpha" operator="out"/>
<feColorMatrix type="matrix" values="0 0 0 0 0 0 0 0 0 0.865333 0 0 0 0 0.983333 0 0 0 1 0"/>
<feBlend mode="normal" in2="BackgroundImageFix" result="effect1_dropShadow_12_266"/>
<feBlend mode="normal" in="SourceGraphic" in2="effect1_dropShadow_12_266" result="shape"/>
</filter>
<filter id="filter1_d_12_266" x="62.1943" y="23.259" width="111.498" height="38.68" filterUnits="userSpaceOnUse" color-interpolation-filters="sRGB">
<feFlood flood-opacity="0" result="BackgroundImageFix"/>
<feColorMatrix in="SourceAlpha" type="matrix" values="0 0 0 0 0 0 0 0 0 0 0 0 0 0 0 0 0 0 127 0" result="hardAlpha"/>
<feOffset/>
<feGaussianBlur stdDeviation="2"/>
<feComposite in2="hardAlpha" operator="out"/>
<feColorMatrix type="matrix" values="0 0 0 0 0 0 0 0 0 0 0 0 0 0 0 0 0 0 0.25 0"/>
<feBlend mode="normal" in2="BackgroundImageFix" result="effect1_dropShadow_12_266"/>
<feBlend mode="normal" in="SourceGraphic" in2="effect1_dropShadow_12_266" result="shape"/>
</filter>
</defs>
</svg>
