<svg width="514" height="219" viewBox="0 0 514 219" fill="none" xmlns="http://www.w3.org/2000/svg">
<g filter="url(#filter0_d_12_266)">
<path d="M403.288 13.696L397.592 13.376C397.72 14.528 397.72 15.68 397.528 17.92C396.824 26.752 393.816 45.888 393.816 52.736C393.816 63.168 400.856 67.008 409.496 67.008C422.168 67.008 430.68 61.184 430.68 51.648C430.68 46.208 428.504 41.728 424.088 36.864L418.456 38.08C423.192 42.048 425.496 46.784 425.496 51.072C425.496 57.728 419.288 61.952 409.56 61.952C402.264 61.952 398.744 58.176 398.744 51.968C398.744 45.056 401.624 25.344 402.456 18.176C402.712 16.768 402.904 15.424 403.288 13.696ZM382.808 22.208L382.488 26.88C388.12 28.416 395.8 29.376 401.432 29.376C406.616 29.376 410.392 29.184 414.488 28.8L414.616 23.936C410.84 24.512 406.424 24.768 401.56 24.768C395.864 24.768 388.184 23.936 382.808 22.208ZM381.208 38.144L380.952 43.008C386.776 44.8 394.52 45.568 401.496 45.568C405.784 45.568 409.752 45.44 414.04 44.992L414.104 40.128C409.624 40.768 405.208 40.896 400.792 40.896C394.904 40.896 387.416 40.32 381.208 38.144ZM458.968 13.568L458.136 18.24C465.944 19.648 477.144 21.056 483.544 21.632L484.248 16.896C478.104 16.576 465.88 15.104 458.968 13.568ZM485.528 31.872L482.456 28.352C481.816 28.608 480.472 28.928 479.384 29.056C474.52 29.696 459.672 30.656 455.96 30.784C453.912 30.784 452.056 30.784 450.584 30.656L451.032 36.224C452.376 36.032 454.04 35.776 456.152 35.648C460.056 35.328 470.808 34.368 475.864 34.112C469.592 40.384 452.184 57.856 449.56 60.416C448.344 61.632 447.192 62.656 446.36 63.296L451.224 66.688C454.872 62.08 461.848 54.72 464.216 52.48C465.688 51.008 467.224 50.112 468.952 50.112C470.744 50.112 472.152 51.328 472.856 53.568C473.496 55.36 474.392 59.136 475.032 61.056C476.44 65.28 479.576 66.496 484.76 66.496C488.152 66.496 494.04 66.048 496.728 65.536L497.112 60.16C494.04 60.928 489.176 61.504 485.016 61.504C481.688 61.504 480.216 60.416 479.448 57.984C478.808 55.936 477.912 52.672 477.272 50.816C476.376 48.192 474.904 46.528 472.472 46.272C471.768 46.08 470.616 46.08 469.912 46.144C472.344 43.648 479.512 36.928 481.944 34.688C482.712 34.048 484.312 32.704 485.528 31.872Z" fill="#4D80E4"/>
</g>
<g filter="url(#filter1_d_12_266)">
<path d="M168.792 148.76C168.792 150.979 167.384 152.856 164.568 154.392C165.592 154.819 166.573 155.032 167.512 155.032C170.157 155.032 172.888 152.941 175.704 148.76C178.52 144.579 180.867 139.672 182.744 134.04C184.707 128.408 186.285 122.947 187.48 117.656C188.76 112.28 189.4 108.227 189.4 105.496C189.4 101.485 187.267 99.48 183 99.48C178.563 99.48 173.955 101.272 169.176 104.856C164.397 108.355 162.008 112.28 162.008 116.632C162.008 118.68 162.52 119.704 163.544 119.704C163.629 119.704 163.757 119.235 163.928 118.296C164.099 117.272 164.568 116.291 165.336 115.352C166.104 114.413 167.256 113.944 168.792 113.944C170.243 113.944 171.48 114.456 172.504 115.48C173.528 116.419 174.04 117.613 174.04 119.064C174.04 121.112 173.101 122.691 171.224 123.8C169.347 124.909 167.213 125.464 164.824 125.464C162.264 125.464 160.088 124.696 158.296 123.16C156.589 121.624 155.736 119.235 155.736 115.992C155.736 110.104 158.723 104.856 164.696 100.248C170.669 95.64 177.027 93.336 183.768 93.336C191.789 93.336 195.8 97.4747 195.8 105.752C195.8 106.008 195.715 106.904 195.544 108.44C198.531 105.368 202.2 102.68 206.552 100.376C210.989 97.9867 214.872 96.792 218.2 96.792C225.88 96.792 229.72 101.016 229.72 109.464C229.72 113.645 228.312 120.088 225.496 128.792C222.765 137.411 221.4 143.085 221.4 145.816C221.4 148.461 222.339 150.509 224.216 151.96C226.093 153.325 228.397 154.008 231.128 154.008C234.2 154.008 236.931 153.069 239.32 151.192C241.795 149.229 243.032 146.627 243.032 143.384C243.032 141.592 242.477 140.227 241.368 139.288C240.344 138.264 239.107 137.752 237.656 137.752C236.632 137.752 235.736 138.008 234.968 138.52C234.285 138.947 233.944 139.501 233.944 140.184C235.395 141.379 236.12 142.915 236.12 144.792C236.12 146.243 235.608 147.395 234.584 148.248C233.645 149.016 232.536 149.4 231.256 149.4C229.891 149.4 228.696 148.973 227.672 148.12C226.733 147.267 226.264 146.072 226.264 144.536C226.264 141.379 227.117 138.691 228.824 136.472C230.531 134.168 233.304 133.016 237.144 133.016C240.216 133.016 242.904 134.083 245.208 136.216C247.597 138.264 248.792 140.867 248.792 144.024C248.792 148.973 247 152.856 243.416 155.672C239.832 158.488 235.651 159.896 230.872 159.896C226.435 159.896 222.637 158.659 219.48 156.184C216.323 153.709 214.744 150.253 214.744 145.816C214.744 142.232 216.195 136.216 219.096 127.768C221.997 119.32 223.448 113.133 223.448 109.208C223.448 105.283 221.699 103.32 218.2 103.32C214.616 103.32 210.392 104.899 205.528 108.056C200.749 111.213 196.824 114.584 193.752 118.168C192.728 122.861 191.491 127.469 190.04 131.992C188.589 136.429 186.797 140.952 184.664 145.56C182.616 150.083 180.141 153.752 177.24 156.568C174.339 159.384 171.267 160.792 168.024 160.792C165.208 160.792 162.648 159.981 160.344 158.36C158.125 156.653 157.016 154.264 157.016 151.192C157.016 148.973 157.656 147.267 158.936 146.072C160.301 144.877 161.837 144.28 163.544 144.28C165.08 144.28 166.317 144.664 167.256 145.432C168.28 146.2 168.792 147.309 168.792 148.76ZM278.91 62.616C282.067 62.616 284.67 63.64 286.718 65.688C288.766 67.736 289.79 70.3387 289.79 73.496C289.79 77.08 288.595 79.9387 286.206 82.072C283.817 84.2053 281.001 85.272 277.758 85.272C274.515 85.272 271.87 84.2907 269.822 82.328C267.774 80.3653 266.75 77.8053 266.75 74.648C266.75 71.4907 267.859 68.7173 270.078 66.328C272.382 63.8533 275.326 62.616 278.91 62.616ZM278.398 69.144C276.777 69.144 275.369 69.6133 274.174 70.552C273.065 71.4053 272.51 72.6853 272.51 74.392C272.51 77.464 274.259 79 277.758 79C279.379 79 280.787 78.5733 281.982 77.72C283.177 76.8667 283.774 75.5867 283.774 73.88C283.774 70.7227 281.982 69.144 278.398 69.144ZM283.902 151.064C281.683 150.04 280.574 148.376 280.574 146.072C280.574 144.451 281.129 143.043 282.238 141.848C283.347 140.653 284.755 140.056 286.462 140.056C288.083 140.056 289.491 140.696 290.686 141.976C291.881 143.256 292.478 144.749 292.478 146.456C292.478 150.381 290.302 153.667 285.95 156.312C281.598 158.957 277.203 160.28 272.766 160.28C269.353 160.28 266.494 159.384 264.19 157.592C261.971 155.8 260.862 153.155 260.862 149.656C260.862 145.816 262.142 140.781 264.702 134.552C267.262 128.237 269.822 122.264 272.382 116.632C274.942 110.915 276.222 106.904 276.222 104.6C276.222 102.381 275.113 101.272 272.894 101.272C271.017 101.272 268.67 101.955 265.854 103.32C263.123 104.685 261.331 106.051 260.478 107.416C261.502 107.757 262.355 108.355 263.038 109.208C263.806 110.061 264.19 111.043 264.19 112.152C264.19 113.517 263.721 114.712 262.782 115.736C261.843 116.76 260.734 117.272 259.454 117.272C256.297 117.272 254.718 114.712 254.718 109.592C254.718 105.581 256.595 102.296 260.35 99.736C264.19 97.176 268.286 95.896 272.638 95.896C275.539 95.896 277.929 96.664 279.806 98.2C281.683 99.736 282.622 101.997 282.622 104.984C282.622 106.947 281.342 110.744 278.782 116.376C276.307 122.008 273.833 127.939 271.358 134.168C268.883 140.312 267.646 145.133 267.646 148.632C267.646 152.557 269.481 154.52 273.15 154.52C277.758 154.52 281.342 153.368 283.902 151.064ZM315.685 135.32C312.613 135.32 310.224 136.301 308.517 138.264C306.81 140.141 305.957 142.445 305.957 145.176C305.957 147.907 306.938 150.296 308.901 152.344C310.864 154.392 313.637 155.416 317.221 155.416C322.17 155.416 326.608 152.813 330.533 147.608C334.544 142.317 337.445 136.557 339.237 130.328C341.029 124.099 341.925 118.467 341.925 113.432C341.925 105.667 338.81 101.784 332.581 101.784C330.021 101.784 327.504 102.595 325.029 104.216C322.64 105.752 320.72 107.885 319.269 110.616C321.829 111.299 323.109 113.091 323.109 115.992C323.109 117.443 322.597 118.723 321.573 119.832C320.634 120.941 319.482 121.496 318.117 121.496C316.666 121.496 315.429 120.941 314.405 119.832C313.381 118.637 312.869 117.272 312.869 115.736C312.869 110.36 314.917 105.752 319.013 101.912C323.194 97.9867 327.973 96.024 333.349 96.024C340.858 96.024 345.552 99.3947 347.429 106.136C350.074 103.235 353.786 100.803 358.565 98.84C363.344 96.8773 367.824 95.896 372.005 95.896C378.917 95.896 382.885 98.712 383.909 104.344C390.906 98.712 397.392 95.896 403.365 95.896C406.864 95.896 409.722 96.7493 411.941 98.456C414.16 100.163 415.269 102.765 415.269 106.264C415.269 110.36 414.074 114.968 411.685 120.088C409.296 125.208 406.906 130.328 404.517 135.448C402.128 140.483 400.933 145.005 400.933 149.016C400.933 153.027 402.81 155.032 406.565 155.032C408.698 155.032 410.917 154.392 413.221 153.112C415.61 151.747 417.402 150.168 418.597 148.376C415.781 146.925 414.373 145.005 414.373 142.616C414.373 141.165 414.885 139.971 415.909 139.032C417.018 138.008 418.554 137.496 420.517 137.496C422.138 137.496 423.589 138.051 424.869 139.16C426.149 140.269 426.789 141.592 426.789 143.128C426.789 147.736 424.485 151.789 419.877 155.288C415.269 158.787 410.448 160.536 405.413 160.536C402.085 160.536 399.354 159.64 397.221 157.848C395.088 155.971 394.021 153.24 394.021 149.656C394.021 145.56 395.173 140.824 397.477 135.448C399.866 130.072 402.213 124.867 404.517 119.832C406.906 114.797 408.101 110.616 408.101 107.288C408.101 103.789 406.224 102.04 402.469 102.04C397.264 102.04 391.077 105.539 383.909 112.536C383.738 117.059 383.098 121.965 381.989 127.256C380.88 132.547 379.386 137.752 377.509 142.872C375.717 147.907 373.328 152.131 370.341 155.544C367.44 158.872 364.282 160.536 360.869 160.536C357.37 160.536 355.621 158.317 355.621 153.88C355.621 149.272 357.797 142.573 362.149 133.784C366.586 124.995 371.792 117.187 377.765 110.36C377.765 104.643 374.992 101.784 369.445 101.784C365.776 101.784 361.893 102.936 357.797 105.24C353.701 107.459 350.501 109.891 348.197 112.536C348.197 117.315 347.557 122.349 346.277 127.64C344.997 132.845 343.12 137.965 340.645 143C338.256 147.949 334.97 152.045 330.789 155.288C326.693 158.531 322.085 160.152 316.965 160.152C311.589 160.152 307.365 158.701 304.293 155.8C301.221 152.899 299.685 149.443 299.685 145.432C299.685 141.421 301.05 137.965 303.781 135.064C306.597 132.163 310.437 130.712 315.301 130.712C318.97 130.712 322 131.565 324.389 133.272C326.778 134.979 327.973 137.325 327.973 140.312C327.973 142.616 327.248 144.451 325.797 145.816C324.346 147.181 322.725 147.864 320.933 147.864C319.568 147.864 318.33 147.48 317.221 146.712C316.112 145.859 315.557 144.749 315.557 143.384C315.557 141.848 316.069 140.483 317.093 139.288C318.117 138.008 319.269 137.112 320.549 136.6C318.928 135.747 317.306 135.32 315.685 135.32ZM361.893 152.984C361.893 153.837 362.149 154.264 362.661 154.264C364.709 154.264 367.184 150.808 370.085 143.896C372.986 136.984 375.077 129.603 376.357 121.752C372.176 127.213 368.72 133.016 365.989 139.16C363.258 145.219 361.893 149.827 361.893 152.984ZM473.874 140.568C473.703 141.933 473.021 143.128 471.826 144.152C470.717 145.176 469.437 145.688 467.986 145.688C466.706 145.688 465.597 145.304 464.658 144.536C463.805 143.683 463.378 142.531 463.378 141.08C463.378 139.544 464.146 138.221 465.682 137.112C467.218 136.003 469.181 135.448 471.57 135.448C474.13 135.448 476.135 136.301 477.586 138.008C479.037 139.715 479.762 141.848 479.762 144.408C479.762 149.016 478.013 152.856 474.514 155.928C471.101 158.915 466.407 160.408 460.434 160.408C453.266 160.408 447.293 158.147 442.514 153.624C437.735 149.101 435.346 142.573 435.346 134.04C435.346 127.981 436.626 122.093 439.186 116.376C441.831 110.573 445.671 105.752 450.706 101.912C455.826 97.9867 461.501 96.024 467.73 96.024C473.789 96.024 478.482 97.4747 481.81 100.376C485.223 103.192 486.93 106.648 486.93 110.744C486.93 116.803 484.199 121.581 478.738 125.08C473.277 128.579 466.962 130.328 459.794 130.328C453.223 130.328 447.847 128.92 443.666 126.104C442.813 128.664 442.386 131.608 442.386 134.936C442.386 141.08 444.05 145.901 447.378 149.4C450.706 152.899 455.399 154.648 461.458 154.648C464.615 154.648 467.602 153.795 470.418 152.088C473.319 150.296 474.77 147.907 474.77 144.92C474.77 143.213 474.471 141.763 473.874 140.568ZM445.458 121.368C448.615 123.587 453.01 124.696 458.642 124.696C464.445 124.696 469.522 123.459 473.874 120.984C478.311 118.424 480.53 114.797 480.53 110.104C480.53 104.557 476.861 101.784 469.522 101.784C463.805 101.784 458.727 103.704 454.29 107.544C449.853 111.384 446.909 115.992 445.458 121.368Z" fill="#2E279D"/>
</g>
<path d="M139.025 121.539C139.025 159.415 108.549 183.433 70.2625 183.433C33.0326 183.433 1.5 159.402 1.5 121.539C1.5 104.961 9.17212 87.7081 21.6657 74.5867C34.1502 61.4748 51.3411 52.6 70.2625 52.6C89.1064 52.6 106.297 62.9505 118.831 76.877C131.384 90.8251 139.025 108.093 139.025 121.539Z" fill="#4D80E4" stroke="#2E279D" stroke-width="3"/>
<ellipse cx="72.1115" cy="162.628" rx="38.8293" ry="5.31084" fill="#ACE5FF" fill-opacity="0.55"/>
<path fill-rule="evenodd" clip-rule="evenodd" d="M90.9046 76.7367C90.945 76.751 90.9834 76.768 91.0211 76.7883C98.0369 80.5777 108.036 88.6402 114.935 100.166C121.871 111.755 125.67 126.838 120.145 144.621C119.516 146.269 118.811 147.945 118.024 149.652C117.987 149.733 118.022 149.829 118.104 149.867C118.182 149.903 118.218 149.995 118.186 150.075C118.158 150.144 118.129 150.213 118.101 150.281C118.018 150.484 118.113 150.716 118.315 150.801L118.411 150.84C118.665 150.947 118.958 150.827 119.063 150.571C119.842 148.668 120.516 146.793 121.091 144.946C128.597 125.252 125.34 109.587 118.219 98.0782C110.848 86.1636 99.3586 78.74 91.5091 75.8911C91.4163 75.8574 91.328 75.818 91.2408 75.7717C90.6402 75.4527 90.0613 75.1647 89.5077 74.908C89.2572 74.7918 88.9617 74.906 88.8497 75.1585C88.7377 75.4109 88.8517 75.7059 89.1022 75.8222C89.4224 75.9709 89.7515 76.1304 90.0888 76.3008C90.1225 76.3179 90.1388 76.3569 90.1272 76.3929C90.1142 76.4333 90.1364 76.4766 90.1767 76.4897C90.4152 76.5673 90.6579 76.6496 90.9046 76.7367ZM97.7631 79.9222C103.859 84.4071 110.668 91.0905 115.793 99.6522C121.12 108.553 124.626 119.487 123.618 132.083C125.907 118.473 122.754 107.308 117.369 98.6044C112.015 89.9514 104.443 83.7109 97.7631 79.9222Z" fill="white"/>
<path d="M114.935 100.166L115.793 99.6522L114.935 100.166ZM120.145 144.621L121.079 144.978L121.09 144.948L121.1 144.918L120.145 144.621ZM121.091 144.946L120.157 144.59L120.145 144.619L120.136 144.649L121.091 144.946ZM118.219 98.0782L117.369 98.6044L118.219 98.0782ZM97.7631 79.9222L98.2565 79.0524L97.1705 80.7277L97.7631 79.9222ZM115.793 99.6522L116.651 99.1387L115.793 99.6522ZM123.618 132.083L122.621 132.003L124.604 132.249L123.618 132.083ZM117.369 98.6044L118.219 98.0782L117.369 98.6044ZM90.1767 76.4897L89.8675 77.4407L90.1767 76.4897ZM91.2408 75.7717L90.7718 76.6549L91.2408 75.7717ZM118.101 150.281L119.026 150.662L118.101 150.281ZM118.315 150.801L117.93 151.723L118.315 150.801ZM118.186 150.075L117.26 149.697L118.186 150.075ZM118.024 149.652L117.116 149.233L118.024 149.652ZM118.411 150.84L118.796 149.918L118.411 150.84ZM119.063 150.571L118.138 150.192L119.063 150.571ZM90.0888 76.3008L90.5397 75.4083L90.0888 76.3008ZM91.0211 76.7883L91.4964 75.9085L91.0211 76.7883ZM90.9046 76.7367L91.2377 75.7938L90.9046 76.7367ZM115.793 99.6522C108.791 87.9541 98.6506 79.7727 91.4964 75.9085L90.5459 77.6682C97.4231 81.3828 107.281 89.3262 114.076 100.679L115.793 99.6522ZM121.1 144.918C126.722 126.821 122.851 111.445 115.793 99.6522L114.076 100.679C120.891 112.065 124.617 126.855 119.19 144.324L121.1 144.918ZM118.933 150.07C119.728 148.344 120.442 146.647 121.079 144.978L119.21 144.265C118.59 145.89 117.893 147.547 117.116 149.233L118.933 150.07ZM119.026 150.662C119.055 150.592 119.083 150.522 119.112 150.452L117.26 149.697C117.232 149.765 117.204 149.833 117.176 149.901L119.026 150.662ZM118.796 149.918L118.7 149.878L117.93 151.723L118.025 151.763L118.796 149.918ZM120.136 144.649C119.57 146.468 118.906 148.316 118.138 150.192L119.988 150.95C120.779 149.021 121.462 147.119 122.046 145.243L120.136 144.649ZM117.369 98.6044C124.328 109.851 127.55 125.191 120.157 144.59L122.025 145.302C129.644 125.313 126.352 109.322 119.07 97.5521L117.369 98.6044ZM91.1679 76.8311C98.8375 79.6147 110.132 86.9078 117.369 98.6044L119.07 97.5521C111.563 85.4194 99.8796 77.8653 91.8502 74.9511L91.1679 76.8311ZM89.0871 75.8152C89.6231 76.0637 90.1859 76.3437 90.7718 76.6549L91.7099 74.8886C91.0945 74.5617 90.4994 74.2656 89.9284 74.0008L89.0871 75.8152ZM90.5397 75.4083C90.193 75.2331 89.854 75.0687 89.5233 74.9152L88.6811 76.7292C88.9908 76.873 89.31 77.0278 89.6379 77.1934L90.5397 75.4083ZM91.2377 75.7938C90.9833 75.704 90.7327 75.6189 90.486 75.5387L89.8675 77.4407C90.0977 77.5156 90.3325 77.5952 90.5715 77.6796L91.2377 75.7938ZM97.1705 80.7277C103.178 85.148 109.89 91.7368 114.935 100.166L116.651 99.1387C111.447 90.4442 104.539 83.6663 98.3558 79.1167L97.1705 80.7277ZM114.935 100.166C120.174 108.92 123.61 119.649 122.621 132.003L124.615 132.163C125.643 119.325 122.065 108.185 116.651 99.1387L114.935 100.166ZM124.604 132.249C126.937 118.38 123.722 106.972 118.219 98.0782L116.519 99.1305C121.787 107.645 124.878 118.566 122.632 131.917L124.604 132.249ZM118.219 98.0782C112.761 89.2555 105.052 82.9066 98.2565 79.0524L97.2698 80.792C103.834 84.5151 111.27 90.6472 116.519 99.1305L118.219 98.0782ZM89.1754 76.0862C88.9928 76.6528 89.3045 77.2576 89.8675 77.4407L90.486 75.5387C90.9683 75.6956 91.2356 76.2138 91.079 76.6996L89.1754 76.0862ZM87.9356 74.753C87.598 75.5141 87.9457 76.3878 88.6811 76.7292L89.5233 74.9152C89.7578 75.0241 89.8774 75.3077 89.7638 75.564L87.9356 74.753ZM89.9284 74.0008C89.161 73.645 88.2697 73.9997 87.9356 74.753L89.7638 75.564C89.6536 75.8123 89.3533 75.9387 89.0871 75.8152L89.9284 74.0008ZM91.8502 74.9511C91.8021 74.9336 91.7565 74.9133 91.7099 74.8886L90.7718 76.6549C90.8995 76.7227 91.0305 76.7812 91.1679 76.8311L91.8502 74.9511ZM117.176 149.901C116.885 150.609 117.217 151.426 117.93 151.723L118.7 149.878C119.009 150.007 119.15 150.359 119.026 150.662L117.176 149.901ZM117.683 150.774C117.278 150.587 117.09 150.113 117.26 149.697L119.112 150.452C119.346 149.876 119.086 149.22 118.524 148.959L117.683 150.774ZM117.116 149.233C116.848 149.814 117.1 150.504 117.683 150.774L118.524 148.959C118.944 149.154 119.125 149.652 118.933 150.07L117.116 149.233ZM118.025 151.763C118.788 152.082 119.672 151.723 119.988 150.95L118.138 150.192C118.245 149.93 118.543 149.812 118.796 149.918L118.025 151.763ZM89.6379 77.1934C89.2314 76.9881 89.0362 76.5179 89.1754 76.0862L91.079 76.6996C91.2413 76.196 91.0136 75.6477 90.5397 75.4083L89.6379 77.1934ZM91.4964 75.9085C91.412 75.8629 91.326 75.8251 91.2377 75.7938L90.5715 77.6796C90.5682 77.6785 90.564 77.6768 90.5592 77.6747C90.5544 77.6726 90.5499 77.6704 90.5459 77.6682L91.4964 75.9085Z" fill="white"/>
<path d="M42.8878 158.901L52.1993 140.049M100.603 157.942L88.893 140.049M88.893 140.049L67.9815 108.098L52.1993 140.049M88.893 140.049H52.1993M36.196 90.4003L52.199 102.347L36.1958 111.932M106.459 80.3L87.2958 100.134L106.459 111.932" stroke="#2E279D" stroke-width="3"/>
<line x1="0.5" y1="-0.5" x2="361.467" y2="-0.5" transform="matrix(0.999977 -0.00672253 0.00514698 0.999987 151.17 182.5)" stroke="black" stroke-opacity="0.23" stroke-linecap="round"/>
<defs>
<filter id="filter0_d_12_266" x="376.952" y="9.37601" width="124.16" height="61.632" filterUnits="userSpaceOnUse" color-interpolation-filters="sRGB">
<feFlood flood-opacity="0" result="BackgroundImageFix"/>
<feColorMatrix in="SourceAlpha" type="matrix" values="0 0 0 0 0 0 0 0 0 0 0 0 0 0 0 0 0 0 127 0" result="hardAlpha"/>
<feOffset/>
<feGaussianBlur stdDeviation="2"/>
<feComposite in2="hardAlpha" operator="out"/>
<feColorMatrix type="matrix" values="0 0 0 0 0 0 0 0 0 0.332119 0 0 0 0 0.983333 0 0 0 1 0"/>
<feBlend mode="normal" in2="BackgroundImageFix" result="effect1_dropShadow_12_266"/>
<feBlend mode="normal" in="SourceGraphic" in2="effect1_dropShadow_12_266" result="shape"/>
</filter>
<filter id="filter1_d_12_266" x="151.736" y="58.616" width="339.194" height="106.176" filterUnits="userSpaceOnUse" color-interpolation-filters="sRGB">
<feFlood flood-opacity="0" result="BackgroundImageFix"/>
<feColorMatrix in="SourceAlpha" type="matrix" values="0 0 0 0 0 0 0 0 0 0 0 0 0 0 0 0 0 0 127 0" result="hardAlpha"/>
<feOffset/>
<feGaussianBlur stdDeviation="2"/>
<feComposite in2="hardAlpha" operator="out"/>
<feColorMatrix type="matrix" values="0 0 0 0 0 0 0 0 0 0 0 0 0 0 0 0 0 0 0.25 0"/>
<feBlend mode="normal" in2="BackgroundImageFix" result="effect1_dropShadow_12_266"/>
<feBlend mode="normal" in="SourceGraphic" in2="effect1_dropShadow_12_266" result="shape"/>
</filter>
</defs>
</svg>
